# xmcd
#
# Track frame offsets: 
#        150
#        15185
#        27190
#        43030
#        55515
#        70500
#        82612
#        107592
#        121265
#        139870
#        159497
#        171457
#        187447
#        211702
#
# Disc length: 3101 seconds
#
# Revision: 0
# Processed by: cddbd v1.5.2PL0 Copyright (c) Steve Scherf et al.
# Submitted via: ExactAudioCopy v1.0b4
#
DISCID=ab0c1b0e
DTITLE=Billie and De De Pierce - New Orleans: The Living Legends - Blues
DTITLE=And Tonks From The Delta
DYEAR=1961
DGENRE=Blues
TTITLE0=St. James Infirmary
TTITLE1=Exactly Like You
TTITLE2=Pinchback Blues
TTITLE3=Milenberg Joys
TTITLE4=In The Racket
TTITLE5=Dippermouth Blues
TTITLE6=Goin' Back To Florida
TTITLE7=You Tell Me Your Dream
TTITLE8=Racktrack Blues
TTITLE9=Shoe Boogie
TTITLE10=Baby Won't You Please Come Home
TTITLE11=Billie's Gumbo Blues
TTITLE12=Good Tonk Blues
TTITLE13=Freight Train Moanin' Blues
EXTD=
EXTT0=
EXTT1=
EXTT2=
EXTT3=
EXTT4=
EXTT5=
EXTT6=
EXTT7=
EXTT8=
EXTT9=
EXTT10=
EXTT11=
EXTT12=
EXTT13=
PLAYORDER=
